<?xml version="1.0" standalone="no"?>
<!DOCTYPE svg PUBLIC "-//W3C//DTD SVG 20010904//EN"
 "http://www.w3.org/TR/2001/REC-SVG-20010904/DTD/svg10.dtd">
<svg version="1.0" xmlns="http://www.w3.org/2000/svg"
 width="846.000000pt" height="846.000000pt" viewBox="0 0 846.000000 846.000000"
 preserveAspectRatio="xMidYMid meet">

<g transform="translate(0.000000,846.000000) scale(0.100000,-0.100000)"
fill="#179c7e" stroke="none">
<path d="M4035 7720 c-1196 -66 -2260 -732 -2856 -1786 -406 -717 -541 -1584
-374 -2405 202 -993 825 -1843 1721 -2350 717 -406 1584 -541 2405 -374 993
202 1843 825 2350 1721 483 854 577 1900 255 2840 -340 993 -1125 1791 -2112
2149 -335 122 -646 185 -1011 205 -192 10 -185 10 -378 0z m605 -744 c601 -95
1118 -355 1541 -776 203 -202 324 -359 459 -595 163 -283 283 -630 336 -970
15 -96 19 -176 19 -400 0 -312 -11 -412 -71 -655 -96 -391 -252 -715 -503
-1045 -90 -119 -332 -364 -451 -459 -390 -308 -842 -506 -1335 -582 -172 -27
-628 -27 -800 0 -604 94 -1121 353 -1546 776 -203 202 -324 359 -459 595 -163
283 -283 630 -336 970 -27 172 -27 628 0 800 94 604 353 1121 776 1546 202
203 359 324 595 459 287 166 652 291 970 334 66 9 134 18 150 20 78 11 555 -3
655 -18z"/>
<path d="M2837 5879 c-94 -23 -169 -88 -203 -175 -18 -47 -19 -100 -19 -1469
0 -1373 1 -1422 19 -1469 91 -237 431 -237 522 0 18 47 19 96 19 1469 0 1373
-1 1422 -19 1469 -48 125 -195 206 -319 175z"/>
<path d="M3987 5879 c-94 -23 -169 -88 -203 -175 -18 -47 -19 -100 -19 -1469
0 -1373 1 -1422 19 -1469 91 -237 431 -237 522 0 18 47 19 96 19 1469 0 1373
-1 1422 -19 1469 -48 125 -195 206 -319 175z"/>
<path d="M5171 5859 c-104 -30 -187 -132 -198 -243 -4 -43 46 -277 307 -1421
172 -753 320 -1386 330 -1405 25 -48 86 -105 140 -129 61 -28 159 -28 220 0
97 44 170 151 170 251 0 22 -140 656 -311 1407 -233 1023 -317 1376 -335 1408
-64 111 -201 167 -323 132z"/>
</g>
</svg>
